<mxfile host="app.diagrams.net" modified="2021-10-15T05:12:37.674Z" agent="5.0 (Windows NT 10.0; Win64; x64) AppleWebKit/537.36 (KHTML, like Gecko) Chrome/94.0.4606.81 Safari/537.36" etag="3Ey1BacgfHZKUmy7zkPj" version="15.5.2" type="github">
  <diagram id="PdFycrB_7tTO06IGKe78" name="Page-1">
    <mxGraphModel dx="1422" dy="762" grid="1" gridSize="10" guides="1" tooltips="1" connect="1" arrows="1" fold="1" page="1" pageScale="1" pageWidth="850" pageHeight="1100" math="0" shadow="0">
      <root>
        <mxCell id="0" />
        <mxCell id="1" parent="0" />
        <mxCell id="V9hSGpoynFK66KpAbuJG-1" value="" style="rounded=0;whiteSpace=wrap;html=1;" parent="1" vertex="1">
          <mxGeometry x="270" y="100" width="340" height="170" as="geometry" />
        </mxCell>
        <mxCell id="V9hSGpoynFK66KpAbuJG-2" value="Network Module" style="text;html=1;strokeColor=none;fillColor=none;align=center;verticalAlign=middle;whiteSpace=wrap;rounded=0;" parent="1" vertex="1">
          <mxGeometry x="360" y="110" width="160" height="20" as="geometry" />
        </mxCell>
        <mxCell id="V9hSGpoynFK66KpAbuJG-3" value="Outgoing Queue" style="rounded=0;whiteSpace=wrap;html=1;" parent="1" vertex="1">
          <mxGeometry x="300" y="160" width="120" height="60" as="geometry" />
        </mxCell>
        <mxCell id="V9hSGpoynFK66KpAbuJG-4" value="Incoming Queue" style="rounded=0;whiteSpace=wrap;html=1;" parent="1" vertex="1">
          <mxGeometry x="460" y="160" width="120" height="60" as="geometry" />
        </mxCell>
        <mxCell id="V9hSGpoynFK66KpAbuJG-5" value="" style="rounded=0;whiteSpace=wrap;html=1;" parent="1" vertex="1">
          <mxGeometry x="310" y="330" width="340" height="180" as="geometry" />
        </mxCell>
        <mxCell id="V9hSGpoynFK66KpAbuJG-6" value="Peer Module" style="text;html=1;strokeColor=none;fillColor=none;align=center;verticalAlign=middle;whiteSpace=wrap;rounded=0;" parent="1" vertex="1">
          <mxGeometry x="360" y="340" width="160" height="20" as="geometry" />
        </mxCell>
        <mxCell id="RYNwz_aUHH8t13GD2ie_-2" value="" style="rounded=0;whiteSpace=wrap;html=1;" vertex="1" parent="1">
          <mxGeometry x="300" y="400" width="120" height="60" as="geometry" />
        </mxCell>
      </root>
    </mxGraphModel>
  </diagram>
</mxfile>
